<svg width="793" height="200" viewBox="0 0 793 200" fill="none" xmlns="http://www.w3.org/2000/svg">
<g clip-path="url(#clip0_1_4)">
<path d="M189.102 147V42.2727H231.034C238.739 42.2727 245.165 43.4148 250.312 45.6989C255.46 47.983 259.33 51.1534 261.92 55.2102C264.511 59.233 265.807 63.8693 265.807 69.1193C265.807 73.2102 264.989 76.8068 263.352 79.9091C261.716 82.9773 259.466 85.5 256.602 87.4773C253.773 89.4205 250.534 90.8011 246.886 91.6193V92.642C250.875 92.8125 254.608 93.9375 258.085 96.017C261.597 98.0966 264.443 101.011 266.625 104.761C268.807 108.477 269.898 112.909 269.898 118.057C269.898 123.614 268.517 128.574 265.756 132.938C263.028 137.267 258.989 140.693 253.636 143.216C248.284 145.739 241.688 147 233.847 147H189.102ZM211.244 128.898H229.295C235.466 128.898 239.966 127.722 242.795 125.369C245.625 122.983 247.04 119.812 247.04 115.858C247.04 112.96 246.341 110.403 244.943 108.188C243.545 105.972 241.551 104.233 238.96 102.972C236.403 101.71 233.352 101.08 229.807 101.08H211.244V128.898ZM211.244 86.0966H227.659C230.693 86.0966 233.386 85.5682 235.739 84.5114C238.125 83.4205 240 81.8864 241.364 79.9091C242.761 77.9318 243.46 75.5625 243.46 72.8011C243.46 69.017 242.114 65.9659 239.42 63.6477C236.761 61.3295 232.977 60.1704 228.068 60.1704H211.244V86.0966ZM305.68 42.2727V147H283.896V42.2727H305.68ZM345.528 148.483C340.517 148.483 336.051 147.614 332.131 145.875C328.21 144.102 325.108 141.494 322.824 138.051C320.574 134.574 319.449 130.244 319.449 125.062C319.449 120.699 320.25 117.034 321.852 114.068C323.455 111.102 325.636 108.716 328.398 106.909C331.159 105.102 334.295 103.739 337.807 102.818C341.352 101.898 345.068 101.25 348.955 100.875C353.523 100.398 357.205 99.9545 360 99.5455C362.795 99.1023 364.824 98.4545 366.085 97.6023C367.347 96.75 367.977 95.4886 367.977 93.8182V93.5114C367.977 90.2727 366.955 87.767 364.909 85.9943C362.898 84.2216 360.034 83.3352 356.318 83.3352C352.398 83.3352 349.278 84.2045 346.96 85.9432C344.642 87.6477 343.108 89.7955 342.358 92.3864L322.21 90.75C323.233 85.9773 325.244 81.8523 328.244 78.375C331.244 74.8636 335.114 72.1704 339.852 70.2954C344.625 68.3864 350.148 67.4318 356.42 67.4318C360.784 67.4318 364.96 67.9432 368.949 68.9659C372.972 69.9886 376.534 71.5739 379.636 73.7216C382.773 75.8693 385.244 78.6307 387.051 82.0057C388.858 85.3466 389.761 89.3523 389.761 94.0227V147H369.102V136.108H368.489C367.227 138.562 365.54 140.727 363.426 142.602C361.312 144.443 358.773 145.892 355.807 146.949C352.841 147.972 349.415 148.483 345.528 148.483ZM351.767 133.449C354.972 133.449 357.801 132.818 360.256 131.557C362.71 130.261 364.636 128.523 366.034 126.341C367.432 124.159 368.131 121.687 368.131 118.926V110.591C367.449 111.034 366.511 111.443 365.318 111.818C364.159 112.159 362.847 112.483 361.381 112.79C359.915 113.062 358.449 113.318 356.983 113.557C355.517 113.761 354.188 113.949 352.994 114.119C350.438 114.494 348.205 115.091 346.295 115.909C344.386 116.727 342.903 117.835 341.847 119.233C340.79 120.597 340.261 122.301 340.261 124.347C340.261 127.312 341.335 129.58 343.483 131.148C345.665 132.682 348.426 133.449 351.767 133.449ZM406.662 147V68.4545H428.446V147H406.662ZM417.605 58.3295C414.366 58.3295 411.588 57.2557 409.27 55.1079C406.986 52.9261 405.844 50.3182 405.844 47.2841C405.844 44.2841 406.986 41.7102 409.27 39.5625C411.588 37.3807 414.366 36.2898 417.605 36.2898C420.844 36.2898 423.605 37.3807 425.889 39.5625C428.207 41.7102 429.366 44.2841 429.366 47.2841C429.366 50.3182 428.207 52.9261 425.889 55.1079C423.605 57.2557 420.844 58.3295 417.605 58.3295ZM445.896 147V68.4545H467.016V82.1591H467.834C469.266 77.2841 471.669 73.6023 475.044 71.1136C478.419 68.5909 482.305 67.3295 486.703 67.3295C487.794 67.3295 488.97 67.3977 490.232 67.5341C491.493 67.6705 492.601 67.858 493.555 68.0966V87.4261C492.533 87.1193 491.118 86.8466 489.311 86.608C487.504 86.3693 485.851 86.25 484.351 86.25C481.146 86.25 478.283 86.9489 475.76 88.3466C473.271 89.7102 471.294 91.6193 469.828 94.0739C468.396 96.5284 467.68 99.358 467.68 102.562V147H445.896Z" fill="#FA5555"/>
<path d="M507.17 176.455V68.4545H518.83V80.9318H520.261C521.148 79.5682 522.375 77.8295 523.943 75.7159C525.545 73.5682 527.83 71.6591 530.795 69.9886C533.795 68.2841 537.852 67.4318 542.966 67.4318C549.58 67.4318 555.409 69.0852 560.455 72.392C565.5 75.6989 569.438 80.3864 572.267 86.4545C575.097 92.5227 576.511 99.6818 576.511 107.932C576.511 116.25 575.097 123.46 572.267 129.562C569.438 135.631 565.517 140.335 560.506 143.676C555.494 146.983 549.716 148.636 543.17 148.636C538.125 148.636 534.085 147.801 531.051 146.131C528.017 144.426 525.682 142.5 524.045 140.352C522.409 138.17 521.148 136.364 520.261 134.932H519.239V176.455H507.17ZM519.034 107.727C519.034 113.659 519.903 118.892 521.642 123.426C523.381 127.926 525.92 131.455 529.261 134.011C532.602 136.534 536.693 137.795 541.534 137.795C546.58 137.795 550.79 136.466 554.165 133.807C557.574 131.114 560.131 127.5 561.835 122.966C563.574 118.398 564.443 113.318 564.443 107.727C564.443 102.205 563.591 97.2273 561.886 92.7955C560.216 88.3295 557.676 84.8011 554.267 82.2102C550.892 79.5852 546.648 78.2727 541.534 78.2727C536.625 78.2727 532.5 79.517 529.159 82.0057C525.818 84.4602 523.295 87.9034 521.591 92.3352C519.886 96.733 519.034 101.864 519.034 107.727ZM618.034 148.841C613.057 148.841 608.54 147.903 604.483 146.028C600.426 144.119 597.205 141.375 594.818 137.795C592.432 134.182 591.239 129.818 591.239 124.705C591.239 120.205 592.125 116.557 593.898 113.761C595.67 110.932 598.04 108.716 601.006 107.114C603.972 105.511 607.244 104.318 610.824 103.534C614.438 102.716 618.068 102.068 621.716 101.591C626.489 100.977 630.358 100.517 633.324 100.21C636.324 99.8693 638.506 99.3068 639.869 98.5227C641.267 97.7386 641.966 96.375 641.966 94.4318V94.0227C641.966 88.9773 640.585 85.0568 637.824 82.2614C635.097 79.4659 630.955 78.0682 625.398 78.0682C619.636 78.0682 615.119 79.3295 611.847 81.8523C608.574 84.375 606.273 87.0682 604.943 89.9318L593.489 85.8409C595.534 81.0682 598.261 77.3523 601.67 74.6932C605.114 72 608.864 70.125 612.92 69.0682C617.011 67.9773 621.034 67.4318 624.989 67.4318C627.511 67.4318 630.409 67.7386 633.682 68.3523C636.989 68.9318 640.176 70.142 643.244 71.9829C646.347 73.8239 648.92 76.6023 650.966 80.3182C653.011 84.0341 654.034 89.0114 654.034 95.25V147H641.966V136.364H641.352C640.534 138.068 639.17 139.892 637.261 141.835C635.352 143.778 632.813 145.432 629.642 146.795C626.472 148.159 622.602 148.841 618.034 148.841ZM619.875 138C624.648 138 628.67 137.062 631.943 135.188C635.25 133.312 637.739 130.892 639.409 127.926C641.114 124.96 641.966 121.841 641.966 118.568V107.523C641.455 108.136 640.33 108.699 638.591 109.21C636.886 109.687 634.909 110.114 632.659 110.489C630.443 110.83 628.278 111.136 626.165 111.409C624.085 111.648 622.398 111.852 621.102 112.023C617.966 112.432 615.034 113.097 612.307 114.017C609.614 114.903 607.432 116.25 605.761 118.057C604.125 119.83 603.307 122.25 603.307 125.318C603.307 129.511 604.858 132.682 607.96 134.83C611.097 136.943 615.068 138 619.875 138ZM710.22 68.4545V78.6818H669.516V68.4545H710.22ZM681.379 49.6364H693.447V124.5C693.447 127.909 693.942 130.466 694.93 132.17C695.953 133.841 697.249 134.966 698.817 135.545C700.419 136.091 702.107 136.364 703.879 136.364C705.209 136.364 706.3 136.295 707.152 136.159C708.004 135.989 708.686 135.852 709.197 135.75L711.652 146.591C710.834 146.898 709.692 147.205 708.226 147.511C706.76 147.852 704.902 148.023 702.652 148.023C699.243 148.023 695.902 147.29 692.629 145.824C689.391 144.358 686.697 142.125 684.55 139.125C682.436 136.125 681.379 132.341 681.379 127.773V49.6364ZM742.129 99.75V147H730.061V42.2727H742.129V80.7273H743.152C744.993 76.6705 747.754 73.4489 751.436 71.0625C755.152 68.642 760.095 67.4318 766.266 67.4318C771.618 67.4318 776.305 68.5057 780.328 70.6534C784.351 72.767 787.47 76.0227 789.686 80.4205C791.936 84.7841 793.061 90.3409 793.061 97.0909V147H780.993V97.9091C780.993 91.6705 779.374 86.8466 776.135 83.4375C772.93 79.9943 768.482 78.2727 762.788 78.2727C758.834 78.2727 755.288 79.108 752.152 80.7784C749.05 82.4489 746.595 84.8864 744.788 88.0909C743.016 91.2955 742.129 95.1818 742.129 99.75Z" fill="#555555"/>
<mask id="mask0_1_4" style="mask-type:alpha" maskUnits="userSpaceOnUse" x="0" y="0" width="150" height="200">
<path fill-rule="evenodd" clip-rule="evenodd" d="M4.85206 45.3082C-22.5424 105.719 75 200 75 200C75 200 172.542 105.719 145.148 45.3082C117.753 -15.1027 32.2465 -15.1027 4.85206 45.3082ZM75 105C91.5685 105 105 91.5685 105 75C105 58.4314 91.5685 45 75 45C58.4314 45 45 58.4314 45 75C45 91.5685 58.4314 105 75 105Z" fill="#FA5555"/>
</mask>
<g mask="url(#mask0_1_4)">
<path d="M74 -80L224 70L74 220L-76 70L74 -80Z" fill="#FA5555"/>
<path d="M25 -133L175 17L25 167L-125 17L25 -133Z" fill="#AAAAAA"/>
<path d="M-15 -177L135 -27L-15 123L-165 -27L-15 -177Z" fill="#555555"/>
<path d="M-53 -55L97 95L-53 245L-203 95L-53 -55Z" fill="white" fill-opacity="0.25"/>
</g>
</g>
<defs>
<clipPath id="clip0_1_4">
<rect width="793" height="200" fill="white"/>
</clipPath>
</defs>
</svg>
